<svg width="130" height="33" viewBox="0 0 130 33" fill="none" xmlns="http://www.w3.org/2000/svg">
<path d="M95.082 11.8814C98.4316 11.8814 101.676 11.777 104.908 11.9075C107.774 12.0248 110.011 13.3551 111.476 15.9897C111.476 14.6594 111.476 13.329 111.476 11.9205C117.508 11.9205 123.409 11.9205 129.415 11.9205C129.415 13.5377 129.415 15.168 129.415 16.9156C127.374 16.9156 125.346 16.9156 123.174 16.9156C123.174 22.0673 123.174 27.1016 123.174 32.2011C121.381 32.2011 119.732 32.2011 117.94 32.2011C117.94 27.1537 117.94 22.1195 117.94 17.0069C115.807 17.0069 113.832 17.0069 112.039 17.0069C111.96 18.7546 112.131 20.4762 111.751 22.0673C110.94 25.5104 108.375 27.4276 104.699 27.6102C103.273 27.6754 101.833 27.6233 100.276 27.6233C100.276 29.2144 100.276 30.6621 100.276 32.188C98.497 32.188 96.8222 32.188 95.082 32.188C95.082 25.4322 95.082 18.7024 95.082 11.8814ZM100.316 22.8237C101.729 22.8237 103.024 22.889 104.319 22.8107C105.785 22.7064 106.648 21.676 106.805 20.0327C106.949 18.585 106.203 17.02 104.987 16.8504C103.469 16.6418 101.886 16.7983 100.316 16.7983C100.316 18.7937 100.316 20.737 100.316 22.8237Z" fill="#25346A"/>
<path d="M14.8897 20.9068C13.6467 24.676 12.4037 28.4321 11.1607 32.2143C9.35511 32.2143 7.58876 32.2143 5.71774 32.2143C3.82055 25.4976 1.92336 18.7679 0 11.9338C1.89719 11.9338 3.68971 11.9338 5.5869 11.9338C6.64671 15.8073 7.70652 19.7069 8.76633 23.6065C8.83175 23.6196 8.91025 23.6196 8.97567 23.6326C10.2056 19.7461 11.4355 15.8725 12.6785 11.9338C14.2355 11.9338 15.7663 11.9338 17.3887 11.9338C18.6055 15.7812 19.8354 19.6417 21.0523 23.5022C21.1308 23.5152 21.2224 23.5283 21.3009 23.5413C22.3607 19.6678 23.4205 15.8073 24.4934 11.9077C26.3513 11.9077 28.1307 11.9077 30.1064 11.9077C28.1962 18.7027 26.299 25.4324 24.4018 32.2013C22.5569 32.2013 20.7775 32.2013 18.9326 32.2013C17.6897 28.4452 16.4336 24.676 15.1906 20.9198C15.099 20.9068 14.9943 20.9068 14.8897 20.9068Z" fill="#25346A"/>
<path d="M75.613 32.201C73.4279 32.201 71.4261 32.201 69.3457 32.201C68.0896 30.4403 66.8074 28.6536 65.5251 26.8407C64.6747 26.8407 63.8373 26.8407 62.8822 26.8407C62.8822 28.6144 62.8822 30.349 62.8822 32.1749C61.1027 32.1749 59.428 32.1749 57.6616 32.1749C57.6616 25.4452 57.6616 18.7285 57.6616 11.9596C57.6616 11.9596 57.714 11.8683 57.7663 11.8683C61.5738 11.8944 65.3943 11.6857 69.1625 12.0378C73.284 12.4291 75.6391 15.794 75.2335 19.9544C74.9719 22.6542 73.8205 24.767 71.256 26.0973C72.6821 28.1058 74.0821 30.0621 75.613 32.201ZM62.8953 21.989C64.6485 21.989 66.3364 22.0934 68.0111 21.9629C69.4373 21.8456 70.1962 20.7761 70.1831 19.3284C70.17 17.8677 69.4111 16.7982 68.1027 16.72C66.3887 16.6287 64.6747 16.6939 62.8953 16.6939C62.8953 18.4546 62.8953 20.1631 62.8953 21.989Z" fill="#25346A"/>
<path d="M86.5906 32.2011C84.8112 32.2011 83.2018 32.2011 81.4616 32.2011C81.4616 30.1665 81.4224 28.1711 81.4747 26.1756C81.5009 25.2627 81.2785 24.5062 80.7813 23.7237C78.3084 19.8502 75.9009 15.9375 73.4019 11.9336C75.4953 11.9336 77.4841 11.9336 79.5775 11.9336C80.9906 14.2421 82.443 16.6288 84.0261 19.2111C85.5831 16.6809 87.0616 14.2942 88.5532 11.8945C90.5682 11.8945 92.57 11.8945 94.742 11.8945C93.5775 13.7465 92.4915 15.4941 91.4055 17.2418C89.9532 19.5633 88.4747 21.8717 87.0485 24.2063C86.7869 24.6236 86.6429 25.1714 86.6298 25.667C86.5644 27.8189 86.5906 29.9579 86.5906 32.2011Z" fill="#25346A"/>
<path d="M47.0503 11.451C50.112 11.4902 52.5064 12.377 54.5606 14.1377C55.8298 15.2202 56.0522 16.8244 55.0709 17.933C54.0765 19.0546 52.441 19.1068 51.198 18.0504C48.5681 15.8071 45.0092 16.068 42.9812 18.6503C41.2148 20.9066 41.4242 24.0106 43.4915 26.0191C45.5587 28.0407 48.7513 28.1581 50.9886 26.3061C51.2896 26.0583 51.5643 25.7713 51.8914 25.6018C53.0428 24.9888 54.5475 25.3801 55.2802 26.4365C56.026 27.519 55.8428 28.9145 54.7569 29.8405C52.0092 32.2142 48.8298 33.1662 45.2447 32.4489C40.1943 31.4577 36.6223 27.2451 36.5046 22.2369C36.3868 17.3331 39.9195 12.8987 44.9045 11.738C45.7027 11.5293 46.5662 11.5032 47.0503 11.451Z" fill="#25346A"/>
<path d="M30.3813 32.1751C30.3813 25.3801 30.3813 18.6764 30.3813 11.9206C32.1084 11.9206 33.7832 11.9206 35.5626 11.9206C35.5626 18.6634 35.5626 25.3801 35.5626 32.1751C33.8486 32.1751 32.1869 32.1751 30.3813 32.1751Z" fill="#25346A"/>
<path d="M44.1851 21.9239C44.1851 20.1893 45.4935 18.8721 47.2336 18.859C49.0131 18.846 50.3084 20.1893 50.2822 22.0152C50.2561 23.6716 48.9084 25.0541 47.286 25.0671C45.5458 25.1062 44.1851 23.7107 44.1851 21.9239Z" fill="#25346A"/>
<path d="M47.4824 0C52.7291 0.104337 57.4525 1.6694 61.43 5.17774C62.3721 5.99939 62.4768 6.79496 61.7964 7.61662C61.1684 8.3861 60.2263 8.42523 59.3235 7.62966C57.0338 5.60813 54.3516 4.26479 51.4076 3.66485C45.8338 2.54322 40.6525 3.57355 36.0469 7.05581C35.5497 7.43403 35.118 7.92963 34.5554 8.1383C33.8488 8.39915 33.1423 8.25569 32.6451 7.52532C32.0694 6.69063 32.2395 5.94722 32.9068 5.37337C33.8226 4.5778 34.804 3.84744 35.8245 3.20837C38.1796 1.74765 40.7834 0.847741 43.4656 0.273886C44.774 -0.0130414 46.1478 0.0782529 47.4824 0Z" fill="#CFA809"/>
<path d="M57.1515 9.57307C54.1421 7.08202 50.7534 5.9604 47.0113 5.99952C43.2693 5.97344 39.8805 7.08202 36.8712 9.57307C35.9814 10.3165 35.8637 11.2164 36.5702 12.025C37.0282 12.5467 37.9702 12.8467 38.8338 12.2206C39.0824 12.0902 39.3441 11.9207 39.5926 11.725C41.7515 10.0556 44.2113 9.20789 46.8151 9.15573C46.8805 9.15573 46.9459 9.15573 47.0113 9.15573C47.0767 9.15573 47.1422 9.15573 47.2076 9.15573C49.8244 9.20789 52.2711 10.0556 54.43 11.725C54.6917 11.9207 54.9403 12.0902 55.1889 12.2206C56.0393 12.8467 56.9945 12.5467 57.4524 12.025C58.1589 11.2164 58.0543 10.3165 57.1515 9.57307Z" fill="#CFA809"/>
<path d="M47.2597 12.2465C49.2877 12.1552 51.1064 12.8073 52.755 13.9681C53.7755 14.6854 54.011 15.5984 53.4353 16.4592C52.7942 17.4112 51.9045 17.5938 50.8054 16.8504C48.3849 15.2071 46.0036 15.2332 43.583 16.8765C42.4186 17.659 41.555 17.4764 40.9008 16.4592C40.3513 15.6245 40.613 14.7245 41.6728 13.9811C43.3344 12.8074 45.1793 12.1161 47.2597 12.2465Z" fill="#CFA809"/>
</svg>
